# AST/ASF file generated using VICON BodyLanguage
# -----------------------------------------------
:version 1.10
:name VICON
:units
  mass 1.0
  length 0.45
  angle deg
:documentation
   .ast/.asf automatically generated from VICON data using
   VICON BodyBuilder and BodyLanguage model FoxedUp or BRILLIANT.MOD
:root
   order TX TY TZ RX RY RZ
   axis XYZ
   position 0 0 0  
   orientation 0 0 0 
:bonedata
  begin
     id 1 
     name lhipjoint
     direction 0.61886 -0.69539 0.365302 
     length 2.20474 
     axis 0 0 0  XYZ
  end
  begin
     id 2 
     name lfemur
     direction 0.34202 -0.939693 0  
     length 6.65149  
     axis 0 0 20  XYZ
    dof rx ry rz
    limits (-160.0 20.0)
           (-70.0 70.0)
           (-60.0 70.0)
  end
  begin
     id 3 
     name ltibia
     direction 0.34202 -0.939693 0   
     length 6.35814   
     axis 0 0 20   XYZ
    dof rx
    limits (-10.0 170.0)
  end
  begin
     id 4 
     name lfoot
     direction 0.101224 -0.278109 0.955201   
     length 2.18766   
     axis -90 7.62852e-016 20   XYZ
    dof rx rz
    limits (-45.0 90.0)
           (-70.0 20.0)
  end
  begin
     id 5 
     name ltoes
     direction 1.53524e-011 -4.21877e-011 1   
     length 1.09206   
     axis -90 7.62852e-016 20   XYZ
    dof rx
    limits (-90.0 20.0)
  end
  begin
     id 6 
     name rhipjoint
     direction -0.600207 -0.708087 0.371972   
     length 2.1652  
     axis 0 0 0  XYZ 
  end
  begin
     id 7 
     name rfemur
     direction -0.34202 -0.939693 0   
     length 6.54691   
     axis 0 0 -20   XYZ
    dof rx ry rz
    limits (-160.0 20.0)
           (-70.0 70.0)
           (-70.0 60.0)
  end
  begin
     id 8 
     name rtibia
     direction -0.34202 -0.939693 0   
     length 6.37474   
     axis 0 0 -20   XYZ
    dof rx
    limits (-10.0 170.0)
 end
 begin
     id 9 
     name rfoot
     direction -0.111266 -0.3057 0.945604   
     length 2.00903  
     axis -90 -7.62852e-016 -20   XYZ
    dof rx rz
    limits (-45.0 90.0)
           (-20.0 70.0)
  end
  begin
     id 10 
     name rtoes
     direction -1.5362e-011 -4.21913e-011 1   
     length 1.00221   
     axis -90 -7.62852e-016 -20   XYZ
    dof rx
    limits (-90.0 20.0)
  end
  begin
     id 11 
     name lowerback
     direction -0.0224561 0.999731 -0.00577314   
     length 2.10409   
     axis 0 0 0   XYZ
    dof rx ry rz
    limits (-20.0 45.0)
           (-30.0 30.0)
           (-30.0 30.0)
  end
  begin
     id 12 
     name upperback
     direction 0.0213126 0.999185 -0.0342817   
     length 2.09783   
     axis 0 0 0   XYZ
    dof rx ry rz
    limits (-20.0 45.0)
           (-30.0 30.0)
           (-30.0 30.0)
  end
  begin
     id 13 
     name thorax
     direction 0.0312356 0.999036 -0.0308451   
     length 2.09788   
     axis 0 0 0   XYZ
    dof rx ry rz
    limits (-20.0 45.0)
           (-30.0 30.0)
           (-30.0 30.0)
  end
  begin
     id 14 
     name lowerneck
     direction -0.0114419 0.996481 0.0830329   
     length 1.38575   
     axis 0 0 0   XYZ
    dof rx ry rz
    limits (-20.0 45.0)
           (-30.0 30.0)
           (-30.0 30.0)
  end
  begin
     id 15 
     name upperneck
     direction -0.0075675 0.996187 -0.0869092   
     length 1.39401   
     axis 0 0 0   XYZ
    dof rx ry rz
    limits (-20.0 45.0)
           (-30.0 30.0)
           (-30.0 30.0)
  end
  begin
     id 16
     name head
     direction -0.00222073 0.999264 -0.0382974  
     length 1.3964  
     axis 0 0 0   XYZ
    dof rx ry rz
    limits (-20.0 45.0)
           (-30.0 30.0)
           (-30.0 30.0)
  end
  begin
     id 17 
     name lclavicle
     direction 0.965962 0.222138 0.132556  
     length 2.81514  
     axis 0 0 0   XYZ
    dof ry rz
    limits (-20.0 10.0)
           (0.0 20.0)
  end
  begin
     id 18 
     name lhumerus
     direction 1 -4.48972e-011 7.03471e-018   
     length 4.47366   
     axis 180 -30 -90   XYZ
    dof rx ry rz
    limits (-60.0 90.0)
           (-90.0 90.0)
           (-90.0 90.0)
  end
  begin
     id 19
     name lradius
     direction 1 -4.48951e-011 -6.22192e-028   
     length 3.19948   
     axis 180 -30 -90   XYZ
    dof rx
    limits (-10.0 170.0)
  end
  begin
     id 20
     name lwrist
     direction 1 -4.48967e-011 -1.24264e-027   
     length 1.59974   
     axis 1.40095e-015 90 90   XYZ
    dof ry
    limits (-180.0 0.0)
 end
  begin
     id 21 
     name lhand
     direction 1 -4.4897e-011 -2.48528e-027   
     length 0.492667   
     axis 1.58582e-015 90 90   XYZ
    dof rx rz
    limits (-90.0 90.0)
           (-45.0 45.0)
  end
  begin
     id 22 
     name lfingers
     direction 1 -4.48996e-011 -4.97056e-027   
     length 0.397201   
     axis 3.17164e-015 90 90   XYZ
    dof rx
    limits (0.0 90.0)
  end
  begin
     id 23
     name lthumb
     direction 0.707107 -6.34981e-011 0.707107   
     length 0.570303   
     axis -90 45 2.85299e-015   XYZ
    dof rx rz
    limits (-45.0 45.0)
           (-45.0 45.0)
  end
  begin
     id 24 
     name rclavicle
     direction -0.961164 0.229034 0.153972   
     length 3.09348  
     axis 0 0 0   XYZ 
    dof ry rz
    limits (-10.0 20.0)
           (-20.0 0.0)
  end
  begin
     id 25 
     name rhumerus
     direction -1 -4.48971e-011 -9.06263e-028  
     length 4.3269   
     axis 180 30 90   XYZ
    dof rx ry rz
    limits (-90.0 60.0)
           (-90.0 90.0)
           (-90.0 90.0)
  end
  begin
     id 26 
     name rradius
     direction -1 -4.48953e-011 1.44659e-027   
     length 3.1896   
     axis 180 30 90   XYZ
    dof rx
    limits (-10.0 170.0)
  end
  begin
     id 27 
     name rwrist
     direction -1 -4.48988e-011 -1.24264e-027   
     length 1.5948   
     axis 1.40095e-015 -90 -90   XYZ
    dof ry
    limits (-180.0 0.0)
  end
  begin
     id 28
     name rhand
     direction -1 -4.49033e-011 -2.48528e-027   
     length 0.464496   
     axis 1.58582e-015 -90 -90   XYZ
    dof rx rz
    limits (-90.0 90.0)
           (-45.0 45.0)
  end
  begin
     id 29
     name rfingers
     direction -1 -4.48905e-011 -4.97056e-027   
     length 0.374489   
     axis 3.17164e-015 -90 -90   XYZ
    dof rx
    limits (0.0 90.0)
  end
  begin
     id 30
     name rthumb
     direction -0.707107 -6.34909e-011 0.707107   
     length 0.537693   
     axis -90 -45 -2.85299e-015   XYZ
    dof rx rz
    limits (-45.0 45.0)
           (-45.0 45.0)
  end
:hierarchy
  begin
    root lhipjoint rhipjoint lowerback
    lhipjoint lfemur
    lfemur ltibia
    ltibia lfoot
    lfoot ltoes
    rhipjoint rfemur
    rfemur rtibia
    rtibia rfoot
    rfoot rtoes
    lowerback upperback
    upperback thorax
    thorax lowerneck lclavicle rclavicle
    lowerneck upperneck
    upperneck head
    lclavicle lhumerus
    lhumerus lradius
    lradius lwrist
    lwrist lhand lthumb
    lhand lfingers
    rclavicle rhumerus
    rhumerus rradius
    rradius rwrist
    rwrist rhand rthumb
    rhand rfingers
  end

#!OML:ASF G:\acrobat\cartwheel_test 2\Patient 1\Session 2\acrobat4.ASF
:FULLY-SPECIFIED
:DEGREES
897
root 9.26581 20.5761 -8.29716 6.17311 -0.193993 0.633626
lowerback -0.684716 0.141548 -3.02541
upperback 1.59708 0.216316 1.37081
thorax 2.00817 0.0485621 3.11212
lowerneck -15.411 -2.6618 -2.61129
upperneck 34.4246 -2.82769 -0.861719
head 14.442 -1.67294 -0.364401
rclavicle 6.11263e-015 3.57812e-015
rhumerus -33.7441 14.3934 -71.9262
rradius 43.4698
rwrist 31.1467
rhand -19.4827 -20.2431
rfingers 7.12502
rthumb 6.83919 -50.1126
lclavicle 6.11263e-015 3.57812e-015
lhumerus -35.6419 -5.17366 79.291
lradius 30.105
lwrist 22.0021
lhand -31.2638 9.73883
lfingers 7.12502
lthumb -4.53788 39.6702
rfemur -27.7356 3.4717 28.1297
rtibia 46.1969
rfoot -25.2273 -24.0306
rtoes -15.2314
lfemur -23.9147 3.35438 -19.4101
ltibia 70.1792
lfoot -15.7859 1.27929
ltoes -37.8761
898
root 9.2742 20.5653 -8.13199 6.08876 -0.585437 0.581226
lowerback -0.592799 0.303394 -2.8855
upperback 1.70795 0.426034 1.48027
thorax 2.05459 0.152244 3.15109
lowerneck -15.6091 -2.75761 -2.76604
upperneck 34.6829 -2.94799 -0.77222
head 14.6133 -1.73121 -0.32802
rclavicle 4.82053e-015 1.27222e-014
rhumerus -32.6301 12.3649 -71.2191
rradius 40.7663
rwrist 32.4158
rhand -19.7338 -20.864
rfingers 7.12502
rthumb 6.59682 -50.7412
lclavicle 4.82053e-015 1.27222e-014
lhumerus -35.8909 -3.63312 78.398
lradius 29.8023
lwrist 21.9342
lhand -31.5869 10.3839
lfingers 7.12502
lthumb -4.84985 40.3084
rfemur -26.8873 3.8016 28.1857
rtibia 46.3494
rfoot -26.1391 -24.1035
rtoes -14.9753
lfemur -26.4502 1.97371 -19.4064
ltibia 69.1995
lfoot -16.9508 1.88563
ltoes -37.2866
899
root 9.2839 20.5475 -7.95921 5.96076 -0.970649 0.461559
lowerback -0.438197 0.491382 -2.57539
upperback 1.77796 0.667018 1.56186
thorax 2.02328 0.276674 3.06463
lowerneck -15.7696 -2.8532 -2.86805
upperneck 35.0171 -3.06628 -0.73695
head 14.811 -1.78911 -0.323305
rclavicle 7.25564e-015 1.74931e-014
rhumerus -31.9326 10.5657 -70.7115
rradius 38.5039
rwrist 33.562
rhand -19.7598 -21.436
rfingers 7.12502
rthumb 6.57174 -51.3141
lclavicle 7.25564e-015 1.74931e-014
lhumerus -36.3206 -2.74635 77.7869
lradius 29.7966
lwrist 22.608
lhand -32.3034 9.93412
lfingers 7.12502
lthumb -5.54168 39.8417
rfemur -25.9252 4.2113 28.3304
rtibia 46.4622
rfoot -26.7087 -24.4708
rtoes -15.3219
lfemur -28.8348 0.775058 -19.3375
ltibia 67.5829
lfoot -18.4821 2.37877
ltoes -37.0749
900
root 9.2935 20.5263 -7.77989 5.71398 -1.3701 0.266001
lowerback -0.180237 0.681619 -2.17434
upperback 1.87837 0.908297 1.67912
thorax 1.96774 0.402507 2.96162
lowerneck -15.8503 -2.9331 -3.0123
upperneck 35.2876 -3.12472 -0.767853
head 14.9616 -1.83657 -0.326299
rclavicle 1.45113e-014 7.55382e-015
rhumerus -31.4555 9.21768 -70.3278
rradius 36.7073
rwrist 34.4954
rhand -19.2246 -21.3057
rfingers 7.12502
rthumb 7.08833 -51.167
lclavicle 1.45113e-014 7.55382e-015
lhumerus -36.836 -2.16853 77.3576
lradius 30.0305
lwrist 23.2606
lhand -32.3186 9.39216
lfingers 7.12502
lthumb -5.55636 39.2993
rfemur -24.7515 4.61603 28.5793
rtibia 46.4268
rfoot -27.3026 -24.8836
rtoes -15.3871
lfemur -30.9414 -0.161055 -19.2208
ltibia 65.3661
lfoot -20.1839 2.74183
ltoes -36.9435
901
root 9.30067 20.5135 -7.5967 5.52612 -1.67294 0.135675
lowerback -0.0264198 0.819486 -1.82414
upperback 2.01051 1.08355 1.78162
thorax 2.00937 0.49298 2.87194
lowerneck -15.9195 -2.97756 -3.01642
upperneck 35.4237 -3.11125 -0.970984
head 15.0385 -1.85896 -0.411053
rclavicle -1.04362e-014 3.97569e-015
rhumerus -31.0335 8.34717 -70.1312
rradius 35.3244
rwrist 35.1616
rhand -18.7202 -21.0726
rfingers 7.12502
rthumb 7.57526 -50.9169
lclavicle -1.04362e-014 3.97569e-015
lhumerus -37.3021 -1.82263 77.0811
lradius 30.6047
lwrist 23.764
lhand -31.9737 9.26642
lfingers 7.12502
lthumb -5.22331 39.182
rfemur -23.5265 4.84747 28.7581
rtibia 46.1369
rfoot -27.8237 -25.0757
rtoes -15.1462
lfemur -32.9007 -0.884286 -19.2324
ltibia 62.5932
lfoot -21.3656 2.89671
ltoes -37.2461
902
root 9.30292 20.524 -7.40824 5.51051 -1.88238 0.0330757
lowerback -0.0992357 0.912628 -1.5153
upperback 2.11782 1.20171 1.90378
thorax 2.15665 0.553266 2.8288
lowerneck -15.9341 -2.99112 -2.96532
upperneck 35.4409 -3.04301 -1.24903
head 15.0428 -1.86129 -0.524384
rclavicle 2.88238e-015 1.59028e-015
rhumerus -30.7482 7.88134 -70.0941
rradius 34.3849
rwrist 35.6383
rhand -18.5591 -21.0328
rfingers 7.12502
rthumb 7.73075 -50.8715
lclavicle 2.88238e-015 1.59028e-015
lhumerus -37.7378 -1.52578 76.958
lradius 31.4167
lwrist 24.2362
lhand -32.004 8.94011
lfingers 7.12502
lthumb -5.25262 38.855
rfemur -22.2878 4.97059 28.8871
rtibia 45.5072
rfoot -28.1741 -25.1566
rtoes -15.1744
lfemur -34.7698 -1.25505 -19.377
ltibia 59.3338
lfoot -22.003 3.26979
ltoes -38.1998
903
root 9.30282 20.5516 -7.21505 5.58356 -2.1251 -0.0820678
lowerback -0.257453 1.03199 -1.16447
upperback 2.15432 1.35431 2.00726
thorax 2.27928 0.633198 2.7448
lowerneck -15.9013 -3.02255 -2.97772
upperneck 35.49 -3.02703 -1.40756
head 15.056 -1.87762 -0.585586
rclavicle 1.10325e-014 2.38542e-015
rhumerus -30.7925 7.66653 -70.2037
rradius 33.9759
rwrist 35.7568
rhand -18.2527 -21.0894
rfingers 7.12502
rthumb 8.02649 -50.917
lclavicle 1.10325e-014 2.38542e-015
lhumerus -38.2212 -1.18399 76.8096
lradius 32.2309
lwrist 24.3872
lhand -31.5909 8.46944
lfingers 7.12502
lthumb -4.85376 38.3938
rfemur -20.9703 5.01738 29.0034
rtibia 44.5548
rfoot -28.3434 -25.1448
rtoes -15.4233
lfemur -36.4778 -1.14698 -19.7018
ltibia 55.7532
lfoot -22.9322 4.08696
ltoes -40.3374
904
root 9.30015 20.5845 -7.01646 5.58613 -2.30784 -0.191529
lowerback -0.362284 1.16694 -0.77905
upperback 2.1427 1.52776 2.03341
thorax 2.32548 0.726555 2.56091
lowerneck -15.7744 -3.0962 -2.86181
upperneck 35.6359 -3.12765 -1.54782
head 15.0905 -1.92372 -0.681725
rclavicle -4.96962e-015 4.77083e-015
rhumerus -31.2135 7.55221 -70.521
rradius 34.0371
rwrist 35.3781
rhand -17.8041 -21.1891
rfingers 7.12502
rthumb 8.45937 -50.9997
lclavicle -4.96962e-015 4.77083e-015
lhumerus -38.7081 -1.0165 76.5896
lradius 33.0148
lwrist 24.4525
lhand -30.6853 8.41988
lfingers 7.12502
lthumb -3.97924 38.3625
rfemur -19.4454 5.01345 29.1311
rtibia 43.345
rfoot -28.3083 -25.1599
rtoes -15.7658
lfemur -37.9541 -0.542125 -20.321
ltibia 52.0207
lfoot -23.9381 4.59669
ltoes -40.3591
905
root 9.29332 20.6133 -6.81266 5.51876 -2.39225 -0.340996
lowerback -0.475669 1.23356 -0.510688
upperback 2.15034 1.60864 2.16871
thorax 2.3966 0.770032 2.55442
lowerneck -15.6502 -3.12923 -2.8107
upperneck 35.839 -3.12733 -1.73804
head 15.1536 -1.94302 -0.771565
rclavicle 1.36167e-014 1.90833e-014
rhumerus -31.6381 7.61923 -70.8196
rradius 34.2699
rwrist 34.9148
rhand -17.6644 -21.1129
rfingers 7.12502
rthumb 8.59426 -50.918
lclavicle 1.36167e-014 1.90833e-014
lhumerus -39.084 -0.433823 76.3577
lradius 33.6035
lwrist 24.0427
lhand -29.8513 8.64788
lfingers 7.12502
lthumb -3.17387 38.604
rfemur -17.7565 5.11185 29.3466
rtibia 41.9813
rfoot -28.2222 -25.3884
rtoes -15.9963
lfemur -39.2542 0.602722 -21.2278
ltibia 48.3746
lfoot -24.1136 5.49257
ltoes -41.2392
